<svg width="60" height="60" viewBox="0 0 60 60" fill="none" xmlns="http://www.w3.org/2000/svg">
<circle cx="30" cy="30" r="29.25" stroke="url(#paint0_linear_225_391)" stroke-width="1.5"/>
<circle cx="30" cy="30" r="25" fill="url(#paint1_linear_225_391)"/>
<path d="M25.8819 22.9185H24C22.8954 22.9185 22 23.8139 22 24.9185V36.2661C22 37.3707 22.8954 38.2661 24 38.2661H25.8819M31.7047 22.9185H33.5865C34.6911 22.9185 35.5865 23.8139 35.5865 24.9185V26.7554" stroke="white" stroke-width="1.5" stroke-linecap="round" stroke-linejoin="round"/>
<path d="M31.5991 37.6296L29.4874 38.0471L29.9098 35.9599C29.9487 35.7675 30.0444 35.5907 30.1848 35.4519L34.1308 31.5515L36.0718 29.6331L38 31.5389L36.059 33.4574L32.113 37.3578C31.9726 37.4965 31.7938 37.5911 31.5991 37.6296Z" stroke="white" stroke-width="1.5" stroke-linecap="round" stroke-linejoin="round"/>
<path d="M25.8821 23C25.8821 21.8954 26.7775 21 27.8821 21H29.7049C30.8095 21 31.7049 21.8954 31.7049 23V24.8369H25.8821V23Z" stroke="white" stroke-width="1.5" stroke-linecap="round" stroke-linejoin="round"/>
<defs>
<linearGradient id="paint0_linear_225_391" x1="0" y1="0" x2="66.9703" y2="9.1866" gradientUnits="userSpaceOnUse">
<stop stop-color="#263468"/>
<stop offset="1" stop-color="#4E66C1"/>
</linearGradient>
<linearGradient id="paint1_linear_225_391" x1="5" y1="5" x2="60.8086" y2="12.6555" gradientUnits="userSpaceOnUse">
<stop stop-color="#263468"/>
<stop offset="1" stop-color="#4E66C1"/>
</linearGradient>
</defs>
</svg>
