<svg width="16" height="17" viewBox="0 0 16 17" fill="none" xmlns="http://www.w3.org/2000/svg">
<circle cx="8" cy="8.5" r="7" stroke="black" stroke-width="1.7" stroke-linecap="round" stroke-linejoin="round"/>
<path d="M8.77756 1.5376C8.50689 1.7654 8.26303 2.03424 8.05554 2.34225C6.8556 4.12356 7.32688 6.54034 9.10819 7.74029C9.2488 7.83501 9.39337 7.91931 9.54098 7.99338C11.1109 8.78112 11.7102 7.71942 12.5602 8.29201C13.1116 8.66342 13.2575 9.41146 12.8861 9.96281C12.4968 10.5406 11.8887 10.8335 11.9939 11.7799C12.0533 12.3141 12.3814 12.7744 12.8067 13.1669" stroke="black" stroke-width="1.7" stroke-linecap="round" stroke-linejoin="round"/>
<path d="M1.77734 6.38428C2.61881 6.58905 3.39746 7.07478 3.9598 7.81998C4.55921 8.61431 4.80768 9.5641 4.73122 10.4834C4.69073 10.9703 5.00827 11.4618 5.41688 11.7296C5.61431 11.8591 5.79319 12.0241 5.94355 12.2233C6.60934 13.1057 6.47649 14.3417 5.66623 15.0648" stroke="black" stroke-width="1.7" stroke-linecap="round" stroke-linejoin="round"/>
</svg>
