<svg width="16" height="18" viewBox="0 0 16 18" fill="none" xmlns="http://www.w3.org/2000/svg">
<path d="M15.0001 9L8.77783 9" stroke="url(#paint0_linear_225_462)" stroke-width="1.5" stroke-linecap="round" stroke-linejoin="round"/>
<path d="M12.6665 11.6667L14.9321 9.07745V9.07745C14.9709 9.03315 14.9709 8.96701 14.9321 8.92272V8.92272L12.6665 6.33341" stroke="url(#paint1_linear_225_462)" stroke-width="1.5" stroke-linecap="round" stroke-linejoin="round"/>
<path d="M11.1111 2.77778V2.33333V2.33333C11.1111 1.59695 10.5142 1 9.77778 1H3C1.89543 1 1 1.89543 1 3V15C1 16.1046 1.89543 17 3 17H9.77778C10.5142 17 11.1111 16.403 11.1111 15.6667V15.6667V15.2222" stroke="url(#paint2_linear_225_462)" stroke-width="1.5" stroke-linecap="round" stroke-linejoin="round"/>
<defs>
<linearGradient id="paint0_linear_225_462" x1="8.48433" y1="9" x2="12.7746" y2="12.6301" gradientUnits="userSpaceOnUse">
<stop stop-color="#9C1303"/>
<stop offset="1" stop-color="#E81402"/>
</linearGradient>
<linearGradient id="paint1_linear_225_462" x1="12.6665" y1="11.9183" x2="14.4551" y2="6.16408" gradientUnits="userSpaceOnUse">
<stop stop-color="#9C1303"/>
<stop offset="1" stop-color="#E81402"/>
</linearGradient>
<linearGradient id="paint2_linear_225_462" x1="0.523061" y1="1" x2="12.3984" y2="2.02051" gradientUnits="userSpaceOnUse">
<stop stop-color="#9C1303"/>
<stop offset="1" stop-color="#E81402"/>
</linearGradient>
</defs>
</svg>
