<svg width="16" height="17" viewBox="0 0 16 17" fill="none" xmlns="http://www.w3.org/2000/svg">
<path d="M6.34545 6.08182C6.34545 5.77975 6.43503 5.48447 6.60285 5.23331C6.77067 4.98215 7.00919 4.7864 7.28827 4.6708C7.56734 4.55521 7.87442 4.52496 8.17068 4.58389C8.46695 4.64282 8.73908 4.78828 8.95267 5.00187C9.16627 5.21547 9.31172 5.4876 9.37065 5.78386C9.42958 6.08013 9.39934 6.38721 9.28374 6.66628C9.16815 6.94535 8.97239 7.18388 8.72123 7.3517C8.47008 7.51952 8.17479 7.60909 7.87273 7.60909V8.37273M9.59091 13.7182L8.48364 15.1945C8.17818 15.6018 7.56727 15.6018 7.26182 15.1945L6.15455 13.7182H4.05455C2.36757 13.7182 1 12.3506 1 10.6636V4.55455C1 2.86757 2.36757 1.5 4.05455 1.5H11.6909C13.3779 1.5 14.7455 2.86757 14.7455 4.55455V10.6636C14.7455 12.3506 13.3779 13.7182 11.6909 13.7182H9.59091Z" stroke="black" stroke-width="1.56" stroke-linecap="round" stroke-linejoin="round"/>
<circle cx="7.87252" cy="10.6635" r="0.763636" fill="black"/>
</svg>
