<svg width="18" height="18" viewBox="0 0 18 18" fill="none" xmlns="http://www.w3.org/2000/svg">
<path d="M10.7778 3.03545H10.0278C10.0278 3.36726 10.2458 3.65964 10.5638 3.75429L10.7778 3.03545ZM11.9601 3.52561L11.6028 4.18503C11.8946 4.34317 12.2557 4.29065 12.4904 4.05594L11.9601 3.52561ZM12.6926 2.79304L13.223 3.32337V3.32337L12.6926 2.79304ZM14.1068 2.79304L13.5765 3.32337H13.5765L14.1068 2.79304ZM15.2068 3.89299L14.6765 4.42332V4.42332L15.2068 3.89299ZM15.2068 5.3072L15.7371 5.83753L15.7371 5.83753L15.2068 5.3072ZM14.4743 6.03972L13.9439 5.50939C13.7092 5.74411 13.6567 6.1052 13.8149 6.39705L14.4743 6.03972ZM14.9646 7.22222L14.2457 7.43616C14.3404 7.75419 14.6327 7.97222 14.9646 7.97222V7.22222ZM14.9646 10.7778V10.0278C14.6327 10.0278 14.3404 10.2458 14.2457 10.5638L14.9646 10.7778ZM14.4744 11.9601L13.815 11.6028C13.6568 11.8946 13.7093 12.2557 13.9441 12.4904L14.4744 11.9601ZM11.9603 14.4743L12.4906 13.9439C12.2559 13.7092 11.8948 13.6567 11.6029 13.8149L11.9603 14.4743ZM10.7778 14.9646L10.5638 14.2457C10.2458 14.3404 10.0278 14.6327 10.0278 14.9646H10.7778ZM7.22222 14.9646H7.97222C7.97222 14.6327 7.75419 14.3404 7.43616 14.2457L7.22222 14.9646ZM6.03972 14.4743L6.39705 13.8149C6.1052 13.6567 5.74411 13.7092 5.50939 13.9439L6.03972 14.4743ZM5.30729 15.2067L4.77696 14.6764H4.77696L5.30729 15.2067ZM3.89308 15.2067L4.42341 14.6764H4.42341L3.89308 15.2067ZM2.79314 14.1068L3.32347 13.5764L3.32347 13.5764L2.79314 14.1068ZM2.79314 12.6925L3.32347 13.2229L3.32347 13.2229L2.79314 12.6925ZM3.52561 11.9601L4.05594 12.4904C4.29065 12.2557 4.34317 11.8946 4.18503 11.6028L3.52561 11.9601ZM3.03545 10.7778L3.75429 10.5638C3.65964 10.2458 3.36726 10.0278 3.03545 10.0278V10.7778ZM3.03545 7.22222V7.97222C3.36726 7.97222 3.65964 7.75419 3.75429 7.43616L3.03545 7.22222ZM3.52573 6.03972L4.18513 6.39705C4.34328 6.1052 4.29078 5.74411 4.05606 5.50939L3.52573 6.03972ZM2.7933 5.3073L2.26297 5.83763H2.26297L2.7933 5.3073ZM2.7933 3.89308L3.32363 4.42341L3.32363 4.42341L2.7933 3.89308ZM3.89325 2.79314L3.36292 2.26281L3.36292 2.26281L3.89325 2.79314ZM5.30746 2.79314L4.77713 3.32347H4.77713L5.30746 2.79314ZM6.03993 3.52561L5.5096 4.05594C5.74432 4.29065 6.1054 4.34317 6.39724 4.18503L6.03993 3.52561ZM7.22222 3.03545L7.43616 3.75429C7.75419 3.65964 7.97222 3.36726 7.97222 3.03545H7.22222ZM8.22222 0.25C7.25572 0.25 6.47222 1.0335 6.47222 2H7.97222C7.97222 1.86193 8.08415 1.75 8.22222 1.75V0.25ZM9.77778 0.25H8.22222V1.75H9.77778V0.25ZM11.5278 2C11.5278 1.0335 10.7443 0.25 9.77778 0.25V1.75C9.91585 1.75 10.0278 1.86193 10.0278 2H11.5278ZM11.5278 3.03545V2H10.0278V3.03545H11.5278ZM12.3174 2.86619C11.8995 2.63979 11.4558 2.45473 10.9917 2.31661L10.5638 3.75429C10.9273 3.86246 11.275 4.00745 11.6028 4.18503L12.3174 2.86619ZM12.1623 2.26271L11.4297 2.99528L12.4904 4.05594L13.223 3.32337L12.1623 2.26271ZM14.6372 2.26271C13.9538 1.5793 12.8457 1.5793 12.1623 2.26271L13.223 3.32337C13.3206 3.22574 13.4789 3.22574 13.5765 3.32337L14.6372 2.26271ZM15.7371 3.36266L14.6372 2.26271L13.5765 3.32337L14.6765 4.42332L15.7371 3.36266ZM15.7371 5.83753C16.4205 5.15412 16.4205 4.04608 15.7371 3.36266L14.6765 4.42332C14.7741 4.52095 14.7741 4.67924 14.6765 4.77687L15.7371 5.83753ZM15.0046 6.57005L15.7371 5.83753L14.6765 4.77687L13.9439 5.50939L15.0046 6.57005ZM15.6834 7.00829C15.5452 6.54411 15.3601 6.10029 15.1337 5.68239L13.8149 6.39705C13.9925 6.72483 14.1375 7.07263 14.2457 7.43616L15.6834 7.00829ZM14.9646 7.97222H16V6.47222H14.9646V7.97222ZM16 7.97222C16.1381 7.97222 16.25 8.08415 16.25 8.22222H17.75C17.75 7.25572 16.9665 6.47222 16 6.47222V7.97222ZM16.25 8.22222V9.77778H17.75V8.22222H16.25ZM16.25 9.77778C16.25 9.91585 16.1381 10.0278 16 10.0278V11.5278C16.9665 11.5278 17.75 10.7443 17.75 9.77778H16.25ZM16 10.0278H14.9646V11.5278H16V10.0278ZM15.1338 12.3174C15.3602 11.8995 15.5453 11.4558 15.6834 10.9917L14.2457 10.5638C14.1375 10.9273 13.9926 11.275 13.815 11.6028L15.1338 12.3174ZM15.7373 12.1623L15.0047 11.4297L13.9441 12.4904L14.6766 13.223L15.7373 12.1623ZM15.7373 14.6372C16.4207 13.9538 16.4207 12.8457 15.7373 12.1623L14.6766 13.223C14.7743 13.3206 14.7743 13.4789 14.6766 13.5765L15.7373 14.6372ZM14.6373 15.7371L15.7373 14.6372L14.6766 13.5765L13.5767 14.6765L14.6373 15.7371ZM12.1625 15.7371C12.8459 16.4205 13.9539 16.4205 14.6373 15.7371L13.5767 14.6765C13.4791 14.7741 13.3208 14.7741 13.2231 14.6765L12.1625 15.7371ZM11.43 15.0046L12.1625 15.7371L13.2231 14.6765L12.4906 13.9439L11.43 15.0046ZM10.9917 15.6834C11.4559 15.5452 11.8997 15.3601 12.3176 15.1337L11.6029 13.8149C11.2752 13.9925 10.9274 14.1375 10.5638 14.2457L10.9917 15.6834ZM11.5278 16V14.9646H10.0278V16H11.5278ZM9.77778 17.75C10.7443 17.75 11.5278 16.9665 11.5278 16H10.0278C10.0278 16.1381 9.91585 16.25 9.77778 16.25V17.75ZM8.22222 17.75H9.77778V16.25H8.22222V17.75ZM6.47222 16C6.47222 16.9665 7.25572 17.75 8.22222 17.75V16.25C8.08415 16.25 7.97222 16.1381 7.97222 16H6.47222ZM6.47222 14.9646V16H7.97222V14.9646H6.47222ZM5.68239 15.1337C6.10029 15.3601 6.54411 15.5452 7.00829 15.6834L7.43616 14.2457C7.07263 14.1375 6.72483 13.9925 6.39705 13.8149L5.68239 15.1337ZM5.83762 15.737L6.57005 15.0046L5.50939 13.9439L4.77696 14.6764L5.83762 15.737ZM3.36275 15.737C4.04617 16.4204 5.15421 16.4204 5.83762 15.737L4.77696 14.6764C4.67933 14.774 4.52104 14.774 4.42341 14.6764L3.36275 15.737ZM2.26281 14.6371L3.36275 15.737L4.42341 14.6764L3.32347 13.5764L2.26281 14.6371ZM2.26281 12.1622C1.57939 12.8456 1.57939 13.9537 2.26281 14.6371L3.32347 13.5764C3.22584 13.4788 3.22584 13.3205 3.32347 13.2229L2.26281 12.1622ZM2.99528 11.4297L2.26281 12.1622L3.32347 13.2229L4.05594 12.4904L2.99528 11.4297ZM2.31661 10.9917C2.45473 11.4558 2.63979 11.8995 2.86619 12.3174L4.18503 11.6028C4.00745 11.275 3.86246 10.9273 3.75429 10.5638L2.31661 10.9917ZM3.03545 10.0278H2V11.5278H3.03545V10.0278ZM2 10.0278C1.86193 10.0278 1.75 9.91585 1.75 9.77778H0.25C0.25 10.7443 1.0335 11.5278 2 11.5278V10.0278ZM1.75 9.77778V8.22222H0.25V9.77778H1.75ZM1.75 8.22222C1.75 8.08415 1.86193 7.97222 2 7.97222V6.47222C1.0335 6.47222 0.25 7.25572 0.25 8.22222H1.75ZM2 7.97222H3.03545V6.47222H2V7.97222ZM2.86632 5.68239C2.63986 6.10029 2.45475 6.54411 2.31661 7.00828L3.75429 7.43616C3.86248 7.07263 4.00751 6.72483 4.18513 6.39705L2.86632 5.68239ZM2.26297 5.83763L2.9954 6.57005L4.05606 5.50939L3.32363 4.77697L2.26297 5.83763ZM2.26297 3.36275C1.57956 4.04617 1.57956 5.15421 2.26297 5.83763L3.32363 4.77697C3.226 4.67933 3.226 4.52104 3.32363 4.42341L2.26297 3.36275ZM3.36292 2.26281L2.26297 3.36275L3.32363 4.42341L4.42358 3.32347L3.36292 2.26281ZM5.83779 2.26281C5.15437 1.57939 4.04634 1.57939 3.36292 2.26281L4.42358 3.32347C4.52121 3.22584 4.6795 3.22584 4.77713 3.32347L5.83779 2.26281ZM6.57026 2.99528L5.83779 2.26281L4.77713 3.32347L5.5096 4.05594L6.57026 2.99528ZM7.00829 2.31661C6.5442 2.45473 6.10046 2.63979 5.68263 2.86619L6.39724 4.18503C6.72497 4.00745 7.0727 3.86246 7.43616 3.75429L7.00829 2.31661ZM6.47222 2V3.03545H7.97222V2H6.47222Z" fill="black"/>
<circle cx="9.00016" cy="8.99992" r="2.66667" stroke="black" stroke-width="1.5" stroke-linecap="round" stroke-linejoin="round"/>
</svg>
