<svg width="20" height="15" viewBox="0 0 20 15" fill="none" xmlns="http://www.w3.org/2000/svg">
<path d="M13.6309 2.15517C13.9015 2.05482 14.1943 2 14.4999 2C15.8806 2 16.9999 3.11929 16.9999 4.5C16.9999 5.88071 15.8806 7 14.4999 7C14.1943 7 13.9015 6.94518 13.6309 6.84483" stroke="black" stroke-width="1.5" stroke-linecap="round"/>
<path d="M1 14C1.69137 11.6928 3.46998 11 7.5 11C11.53 11 13.3086 11.6928 14 14" stroke="black" stroke-width="1.5" stroke-linecap="round"/>
<path d="M15 10C17.403 10.095 18.5292 10.6383 19 12" stroke="black" stroke-width="1.5" stroke-linecap="round"/>
<path d="M11 4.5C11 6.433 9.433 8 7.5 8C5.567 8 4 6.433 4 4.5C4 2.567 5.567 1 7.5 1C9.433 1 11 2.567 11 4.5Z" stroke="black" stroke-width="1.5"/>
</svg>
